<?xml version="1.0" standalone="no"?>
<!DOCTYPE svg PUBLIC "-//W3C//DTD SVG 20010904//EN"
 "http://www.w3.org/TR/2001/REC-SVG-20010904/DTD/svg10.dtd">
<svg version="1.0" xmlns="http://www.w3.org/2000/svg"
 width="360.000000pt" height="360.000000pt" viewBox="0 0 360.000000 360.000000"
 preserveAspectRatio="xMidYMid meet">

<g transform="translate(0.000000,360.000000) scale(0.100000,-0.100000)"
fill="#000000" stroke="none">
<path d="M1660 2534 c-208 -54 -377 -224 -425 -425 -9 -40 -15 -114 -15 -195
0 -130 0 -131 -25 -142 l-25 -12 0 -224 c0 -259 -1 -256 83 -256 88 0 82 -30
82 407 0 380 0 389 23 444 131 325 532 414 772 170 64 -65 103 -132 125 -217
13 -51 15 -109 9 -414 -8 -410 -12 -390 81 -390 86 0 85 -4 85 256 l0 224 -25
12 c-25 11 -25 12 -25 139 0 147 -11 208 -51 298 -95 209 -303 342 -534 340
-44 0 -105 -7 -135 -15z"/>
<path d="M1743 2095 c-52 -14 -123 -53 -123 -67 0 -4 41 -94 90 -199 50 -106
90 -193 90 -195 0 -2 -12 1 -26 6 -92 35 -217 -18 -266 -113 -45 -88 -17 -215
59 -272 150 -116 363 -14 363 174 0 66 -95 331 -176 493 -19 39 -33 76 -31 83
8 20 92 38 159 33 76 -5 146 -37 194 -90 42 -47 44 -36 5 23 -72 107 -212 159
-338 124z"/>
<path d="M1362 1768 c-17 -17 -17 -459 0 -476 14 -14 47 -16 66 -4 19 12 19
472 0 484 -19 12 -52 10 -66 -4z"/>
<path d="M2172 1772 c-10 -7 -13 -62 -13 -242 0 -246 1 -250 46 -250 43 0 45
13 45 250 0 162 -3 229 -12 238 -14 14 -47 16 -66 4z"/>
</g>
</svg>
